<?xml version="1.0" standalone="no"?>
<!DOCTYPE svg PUBLIC "-//W3C//DTD SVG 20010904//EN"
 "http://www.w3.org/TR/2001/REC-SVG-20010904/DTD/svg10.dtd">
<svg version="1.0" xmlns="http://www.w3.org/2000/svg"
 width="2048.000000pt" height="2048.000000pt" viewBox="0 0 2048.000000 2048.000000"
 preserveAspectRatio="xMidYMid meet">

<g transform="translate(0.000000,2048.000000) scale(0.100000,-0.100000)"
fill="#373a40" stroke="none">
<path d="M9761 20299 c-2226 -288 -4442 -1188 -6020 -2447 -711 -567 -1409
-1343 -1955 -2175 -1087 -1655 -1649 -3570 -1613 -5497 17 -900 143 -1732 392
-2595 438 -1518 1197 -2875 2270 -4063 15 -16 117 6 296 64 94 30 333 127 348
140 2 2 -66 77 -151 166 -913 964 -1572 1993 -2043 3193 -355 902 -558 1784
-645 2790 -18 202 -24 934 -11 1173 96 1685 649 3305 1609 4711 912 1336 2156
2417 3597 3126 945 465 1906 758 2950 900 312 43 520 96 743 192 194 82 294
148 417 272 57 59 74 81 60 80 -11 0 -121 -14 -244 -30z"/>
<path d="M10560 20228 c115 -111 205 -171 361 -239 241 -104 435 -155 779
-204 762 -109 1374 -262 2060 -517 1466 -545 2786 -1459 3808 -2636 1369
-1578 2166 -3527 2283 -5584 13 -239 7 -971 -11 -1173 -73 -853 -230 -1610
-490 -2370 -393 -1144 -974 -2180 -1738 -3099 -156 -187 -247 -288 -461 -514
-84 -89 -152 -164 -150 -166 15 -13 254 -110 348 -140 179 -58 281 -80 296
-64 835 924 1462 1921 1923 3058 644 1591 873 3292 666 4950 -198 1592 -815
3154 -1770 4482 -508 708 -1101 1339 -1724 1839 -1448 1162 -3511 2043 -5580
2383 -179 30 -416 62 -660 91 l-45 6 105 -103z"/>
<path d="M8345 19334 c-200 -27 -406 -93 -513 -164 -112 -75 -232 -212 -302
-346 l-31 -61 25 -95 26 -95 -20 -127 c-11 -69 -20 -128 -20 -131 0 -3 24 7
53 21 128 65 296 104 452 104 l92 0 80 78 c192 186 327 438 383 712 11 54 20
103 20 109 0 15 -119 13 -245 -5z"/>
<path d="M11890 19339 c0 -6 9 -55 20 -109 56 -274 188 -520 381 -710 l82 -80
92 0 c156 0 324 -38 453 -104 28 -14 52 -24 52 -21 0 3 -9 62 -20 131 l-20
127 26 95 25 95 -31 61 c-71 135 -188 270 -302 346 -69 46 -188 93 -317 126
-168 43 -441 70 -441 43z"/>
<path d="M7302 19074 c-173 -38 -392 -136 -527 -237 -145 -107 -287 -278 -359
-431 -23 -48 -26 -62 -17 -89 21 -66 41 -213 41 -307 0 -87 -19 -241 -36 -283
-4 -10 40 4 132 44 169 74 290 108 414 115 111 8 113 9 202 128 74 99 139 232
174 356 27 93 28 102 29 375 0 196 4 288 13 308 7 16 12 30 12 33 0 5 -2 5
-78 -12z"/>
<path d="M13104 19073 c21 -70 26 -139 23 -355 -2 -239 -2 -245 26 -343 35
-127 100 -260 175 -361 89 -119 91 -120 202 -128 124 -7 245 -41 414 -115 92
-40 136 -54 132 -44 -17 42 -36 196 -36 283 0 94 20 241 41 307 9 27 6 41 -17
89 -47 99 -146 236 -231 321 -161 159 -374 275 -622 338 -115 30 -114 30 -107
8z"/>
<path d="M9036 18609 c-150 -22 -326 -90 -463 -178 -46 -29 -83 -55 -83 -56 0
-2 19 -13 43 -23 51 -23 90 -64 112 -115 15 -36 14 -39 -11 -90 -15 -28 -46
-83 -70 -120 -24 -37 -44 -71 -44 -76 0 -10 58 -35 145 -63 80 -25 233 -48
320 -48 156 0 353 48 495 120 153 78 307 217 410 372 l62 93 -33 8 c-104 27
-183 53 -268 91 -111 49 -184 71 -294 85 -91 13 -236 12 -321 0z"/>
<path d="M11085 18606 c-106 -18 -160 -34 -288 -90 -59 -26 -144 -56 -190 -68
-45 -11 -83 -21 -85 -23 -2 -1 25 -44 59 -95 173 -258 441 -431 739 -476 121
-18 210 -18 330 1 127 20 300 75 300 96 0 5 -20 39 -44 76 -24 37 -55 92 -70
121 l-27 53 19 42 c23 51 64 90 115 112 20 8 37 17 37 19 0 11 -176 115 -252
148 -141 63 -260 89 -423 93 -89 3 -169 0 -220 -9z"/>
<path d="M6055 18429 c-313 -179 -558 -427 -724 -730 l-41 -76 24 -104 c31
-128 52 -285 62 -446 3 -68 8 -123 10 -123 2 0 24 16 49 35 118 89 283 155
444 176 l94 13 33 45 c46 64 127 230 158 326 47 148 60 238 61 410 0 152 -2
166 -33 272 -18 61 -36 143 -40 182 l-7 72 -90 -52z"/>
<path d="M14327 18408 c-4 -40 -21 -120 -39 -178 -30 -99 -32 -114 -32 -270
-1 -178 12 -264 60 -415 31 -96 112 -262 158 -326 l33 -45 94 -13 c161 -21
326 -87 444 -176 25 -19 47 -35 49 -35 2 0 7 55 10 123 10 161 31 318 62 446
l24 104 -41 76 c-169 309 -435 573 -750 745 l-66 36 -6 -72z"/>
<path d="M7937 18300 c-196 -35 -365 -126 -497 -267 -57 -60 -142 -174 -136
-180 2 -2 37 -12 79 -22 41 -11 94 -29 117 -41 l42 -22 -6 -51 c-6 -45 -33
-133 -61 -201 -8 -18 -4 -19 106 -13 349 19 637 191 817 488 39 63 106 209 99
215 -12 12 -130 57 -194 75 -88 23 -287 34 -366 19z"/>
<path d="M12290 18304 c-85 -15 -174 -40 -237 -66 -40 -16 -73 -31 -73 -32 0
-14 61 -146 91 -198 179 -307 473 -486 828 -505 110 -6 114 -5 106 13 -28 68
-55 156 -61 201 l-6 51 39 20 c35 18 106 41 176 56 l27 6 -42 63 c-165 244
-415 384 -703 392 -66 2 -131 2 -145 -1z"/>
<path d="M4995 17696 c-325 -247 -610 -584 -784 -923 l-20 -41 55 -83 c31 -45
69 -109 85 -142 35 -69 95 -244 105 -305 4 -23 11 -45 15 -48 5 -3 33 15 62
39 105 88 260 178 394 228 l56 21 72 152 c86 177 110 247 131 376 20 119 14
305 -16 475 -12 66 -22 168 -23 227 -1 65 -6 108 -12 108 -5 -1 -59 -38 -120
-84z"/>
<path d="M15353 17672 c-1 -59 -11 -161 -23 -227 -30 -170 -36 -356 -16 -475
21 -129 45 -199 131 -376 l72 -152 56 -21 c134 -50 289 -140 394 -228 29 -24
57 -42 62 -39 4 3 11 25 15 48 10 61 70 236 105 305 16 33 55 97 85 143 l56
83 -42 76 c-148 271 -341 518 -563 721 -91 83 -306 250 -321 250 -5 0 -10 -48
-11 -108z"/>
<path d="M6886 17720 c-329 -52 -604 -251 -754 -545 l-31 -60 71 -12 c39 -6
98 -22 131 -34 l59 -22 -6 -63 c-5 -53 -30 -151 -53 -210 -4 -11 6 -14 45 -14
142 0 345 54 458 121 148 88 342 317 443 524 60 122 116 264 107 273 -3 2 -40
13 -83 24 -91 22 -299 32 -387 18z"/>
<path d="M13330 17724 c-89 -15 -189 -37 -199 -43 -22 -14 74 -248 159 -386
101 -165 267 -344 384 -414 112 -67 316 -121 458 -121 39 0 49 3 45 14 -23 59
-48 157 -53 210 l-6 63 59 22 c33 12 92 28 131 34 l71 12 -28 57 c-131 259
-371 453 -650 524 -93 24 -303 40 -371 28z"/>
<path d="M8213 17470 c-23 -5 -140 -38 -260 -74 -257 -77 -381 -109 -481 -126
l-73 -12 -50 -74 c-27 -41 -48 -74 -45 -74 2 0 41 -7 87 -16 130 -24 221 -51
386 -115 229 -89 296 -103 488 -103 136 0 174 3 250 23 121 31 243 85 345 152
83 54 205 157 196 166 -2 2 -30 11 -62 20 -69 18 -119 42 -237 116 -165 104
-378 149 -544 117z"/>
<path d="M12015 17469 c-100 -20 -206 -62 -292 -116 -118 -74 -168 -98 -237
-116 -32 -9 -60 -18 -62 -20 -9 -9 113 -112 196 -166 102 -67 224 -121 345
-152 76 -20 114 -23 250 -23 192 0 259 14 488 103 165 64 256 91 386 115 46 9
85 16 87 16 3 0 -18 33 -45 74 l-50 74 -68 11 c-110 19 -222 49 -488 128 -229
68 -259 75 -355 78 -58 2 -127 0 -155 -6z"/>
<path d="M5848 16975 c-345 -58 -635 -288 -766 -609 -48 -115 -49 -120 -19
-112 27 6 151 -8 210 -24 l37 -11 0 -72 c0 -40 -7 -103 -15 -141 -8 -38 -13
-72 -10 -74 2 -2 48 5 102 16 186 37 337 113 448 226 118 119 238 315 306 500
32 85 84 285 76 292 -2 3 -31 9 -63 14 -79 13 -212 11 -306 -5z"/>
<path d="M14317 16980 c-27 -5 -51 -11 -54 -13 -7 -8 37 -185 69 -277 67 -189
193 -396 318 -520 78 -79 194 -148 317 -191 55 -19 222 -54 228 -47 2 2 -3 32
-11 68 -7 36 -14 100 -14 142 l0 77 38 11 c58 16 182 30 209 24 23 -6 25 -4
18 17 -15 50 -75 183 -107 236 -115 191 -319 353 -540 429 -139 47 -339 66
-471 44z"/>
<path d="M7184 16869 c-58 -10 -108 -28 -339 -123 -88 -36 -239 -92 -335 -123
-96 -31 -178 -61 -182 -67 -4 -6 -25 -38 -47 -72 l-39 -60 126 -28 c70 -15
203 -52 296 -83 93 -30 203 -61 245 -69 327 -58 703 68 978 329 l74 71 -73 26
c-40 14 -110 49 -154 78 -45 29 -108 63 -140 76 -122 50 -279 67 -410 45z"/>
<path d="M13016 16864 c-98 -22 -175 -55 -270 -116 -44 -29 -114 -64 -154 -78
l-73 -26 74 -71 c275 -261 651 -387 978 -329 42 8 152 39 245 69 93 31 226 68
296 83 l128 28 -17 26 c-9 14 -30 45 -46 70 l-30 46 -176 57 c-97 31 -248 87
-336 123 -272 113 -313 125 -439 130 -77 3 -132 -1 -180 -12z"/>
<path d="M3878 16751 c-80 -61 -192 -181 -236 -255 -150 -247 -170 -525 -66
-896 31 -112 54 -258 54 -347 0 -48 4 -73 11 -73 7 0 76 34 155 75 142 75 144
76 154 118 38 149 125 336 209 448 47 61 51 71 62 155 21 162 -6 364 -66 488
-13 28 -54 91 -89 139 -39 52 -72 110 -82 142 -10 30 -23 55 -29 55 -7 0 -41
-22 -77 -49z"/>
<path d="M16501 16758 c-15 -50 -56 -119 -116 -198 -58 -76 -82 -126 -105
-222 -27 -112 -35 -253 -21 -362 12 -84 15 -94 62 -155 66 -88 162 -284 194
-396 14 -49 29 -93 33 -96 14 -13 279 -149 290 -149 8 0 12 23 12 69 0 101 16
199 59 373 50 197 66 322 57 457 -8 134 -26 213 -75 317 -48 102 -85 156 -164
241 -64 69 -181 163 -202 163 -6 0 -17 -19 -24 -42z"/>
<path d="M6347 16200 c-112 -20 -187 -52 -352 -150 -93 -56 -263 -147 -377
-203 l-207 -102 -41 -95 c-23 -52 -44 -101 -47 -108 -4 -10 7 -11 48 -6 69 8
289 -11 427 -37 162 -30 289 -34 401 -15 241 42 470 161 663 345 86 81 188
200 188 218 0 4 -29 14 -65 21 -36 7 -110 33 -166 57 -55 25 -126 53 -157 61
-68 18 -248 26 -315 14z"/>
<path d="M13890 16203 c-72 -12 -148 -37 -239 -77 -55 -25 -130 -51 -166 -58
-36 -7 -65 -17 -65 -21 0 -18 102 -137 188 -218 193 -184 422 -303 663 -345
112 -19 239 -15 401 15 138 26 358 45 427 37 41 -5 52 -4 48 6 -3 7 -24 56
-47 108 l-41 95 -207 102 c-114 56 -283 147 -376 202 -169 101 -240 131 -350
150 -58 11 -185 13 -236 4z"/>
<path d="M5035 16143 c-300 -37 -558 -195 -733 -449 -66 -95 -139 -285 -156
-406 l-7 -48 33 8 c18 4 77 7 131 7 76 0 100 -3 107 -15 14 -22 25 -116 23
-203 -1 -90 -13 -87 125 -32 112 45 234 129 319 218 58 62 81 97 136 208 104
211 150 382 163 608 l7 111 -59 -1 c-32 -1 -72 -4 -89 -6z"/>
<path d="M15304 16041 c19 -317 140 -647 299 -817 83 -89 207 -174 319 -219
138 -55 126 -58 125 32 -2 87 9 181 23 203 7 12 31 15 107 15 54 0 113 -3 131
-7 l33 -8 -7 48 c-17 121 -90 311 -156 406 -122 176 -285 309 -470 382 -93 37
-210 63 -317 71 l-94 6 7 -112z"/>
<path d="M9555 16043 c-1135 -67 -2179 -430 -3192 -1109 -1082 -726 -1933
-1685 -2504 -2824 -440 -879 -698 -1812 -785 -2840 -22 -252 -25 -916 -6
-1145 114 -1372 526 -2571 1275 -3713 l119 -182 132 68 c110 57 339 195 410
247 17 13 12 24 -96 187 -755 1140 -1179 2390 -1259 3716 -13 218 -7 879 10
1057 71 742 199 1337 417 1938 444 1222 1201 2242 2249 3029 723 543 1566 944
2222 1059 83 14 195 23 378 29 319 11 448 31 637 100 194 71 350 196 436 349
l23 41 -208 -2 c-114 -1 -230 -3 -258 -5z"/>
<path d="M10473 16024 c23 -44 100 -144 144 -185 93 -89 234 -163 404 -212
149 -44 262 -58 534 -67 183 -6 295 -15 378 -29 656 -115 1499 -516 2222
-1059 1465 -1100 2358 -2652 2620 -4552 56 -410 81 -1064 56 -1475 -81 -1325
-506 -2577 -1259 -3713 -108 -163 -113 -174 -96 -187 71 -52 300 -190 410
-247 l132 -68 119 182 c748 1139 1165 2355 1275 3713 19 236 16 898 -5 1145
-66 759 -219 1450 -469 2115 -364 968 -905 1821 -1613 2544 -955 975 -2155
1679 -3340 1961 -426 101 -785 147 -1244 157 l-283 6 15 -29z"/>
<path d="M3133 15868 c-108 -135 -188 -270 -258 -435 -91 -210 -145 -468 -145
-685 l0 -100 46 -73 c58 -95 110 -221 134 -330 10 -48 20 -88 22 -91 2 -2 50
67 107 154 57 86 154 232 215 323 123 182 150 246 181 423 47 276 -26 619
-159 746 -25 24 -53 63 -63 87 -10 23 -21 43 -24 43 -3 0 -28 -28 -56 -62z"/>
<path d="M17267 15887 c-10 -24 -38 -63 -63 -87 -142 -135 -211 -507 -149
-799 33 -156 52 -193 276 -528 118 -177 215 -320 217 -318 2 2 12 42 22 90 24
109 76 235 134 330 l46 73 0 100 c0 332 -111 692 -303 982 -54 81 -147 200
-156 200 -3 0 -14 -20 -24 -43z"/>
<path d="M5400 15335 c-162 -33 -261 -82 -395 -196 -119 -99 -254 -204 -382
-293 l-83 -58 0 -95 0 -96 38 7 c20 4 165 11 322 15 330 10 378 19 546 101
226 110 401 284 519 516 41 79 43 89 28 95 -10 3 -133 9 -273 12 -195 5 -270
3 -320 -8z"/>
<path d="M14638 15341 c-86 -3 -159 -9 -162 -12 -9 -9 78 -173 130 -246 112
-156 257 -280 428 -363 168 -82 216 -91 546 -101 157 -4 302 -11 323 -15 l37
-7 0 96 0 95 -82 58 c-129 89 -264 194 -383 293 -137 116 -237 165 -403 197
-74 14 -146 15 -434 5z"/>
<path d="M4156 15119 c-177 -26 -378 -114 -516 -226 -152 -124 -274 -302 -333
-488 -26 -81 -52 -194 -45 -200 1 -2 28 1 58 7 72 13 199 5 211 -13 13 -22 24
-116 22 -202 -1 -89 -13 -86 118 -36 105 40 241 133 324 221 162 170 284 507
302 829 l6 119 -44 -1 c-24 -1 -71 -5 -103 -10z"/>
<path d="M16183 15013 c18 -323 138 -656 301 -830 82 -88 218 -181 325 -222
130 -49 118 -53 117 36 -1 87 10 180 24 203 7 12 31 15 107 15 54 0 113 -3
131 -7 l32 -8 -6 43 c-25 163 -116 366 -222 498 -175 215 -449 360 -731 385
l-84 7 6 -120z"/>
<path d="M8432 15079 c-276 -46 -535 -235 -660 -484 l-31 -60 20 -59 c34 -100
35 -237 2 -322 -3 -10 12 -6 52 11 81 36 208 71 306 86 196 28 336 139 390
309 17 51 22 96 24 211 3 161 15 206 76 282 l30 37 -78 -1 c-43 -1 -102 -5
-131 -10z"/>
<path d="M11869 15053 c60 -76 72 -120 76 -281 2 -116 7 -161 24 -212 54 -170
194 -281 390 -309 98 -15 225 -50 306 -86 40 -17 55 -21 52 -11 -33 85 -32
222 2 322 l20 59 -31 60 c-149 296 -471 495 -801 495 l-68 0 30 -37z"/>
<path d="M2314 14826 c-233 -185 -364 -405 -436 -736 -20 -92 -22 -133 -22
-335 0 -200 3 -243 22 -331 46 -210 93 -320 197 -459 77 -103 96 -138 119
-214 29 -98 22 -141 -48 -328 -443 -1172 -594 -2542 -431 -3893 197 -1624 840
-3138 1877 -4422 66 -81 138 -167 161 -192 l42 -45 150 82 c83 46 189 105 237
131 l88 47 -98 112 c-1019 1172 -1691 2580 -1952 4089 -261 1509 -158 2799
311 3881 118 273 136 300 240 353 83 41 155 55 349 64 411 21 622 74 803 204
118 83 254 240 356 408 l22 37 -68 34 c-153 77 -273 101 -460 95 -150 -6 -246
-29 -365 -89 -49 -25 -61 -37 -89 -89 -58 -109 -188 -210 -335 -260 -80 -28
-117 -26 -155 8 -26 24 -31 33 -25 56 10 40 61 68 116 62 41 -4 51 0 105 39
67 47 176 158 222 226 49 71 101 182 130 276 24 80 27 103 27 258 1 94 -3 183
-7 199 l-8 28 -82 -7 c-402 -35 -712 -287 -798 -650 -19 -83 -20 -91 -5 -116
24 -41 21 -95 -9 -124 -45 -46 -95 -27 -142 53 -24 40 -28 58 -28 117 1 79 31
204 76 308 43 103 111 199 221 313 l99 102 -22 98 c-30 138 -72 260 -135 392
-54 114 -134 251 -158 271 -9 8 -33 -6 -92 -53z"/>
<path d="M7557 14846 c-279 -143 -520 -389 -653 -669 -32 -67 -35 -80 -25
-109 23 -72 42 -219 43 -336 l0 -122 68 64 c88 83 181 137 300 176 52 17 119
47 148 67 66 45 136 122 168 185 32 63 46 200 33 329 -20 210 -21 312 -6 384
8 39 14 71 13 72 -2 2 -41 -17 -89 -41z"/>
<path d="M12834 14875 c3 -8 11 -45 17 -82 12 -66 9 -155 -10 -356 -13 -134 1
-272 33 -335 32 -63 102 -140 168 -185 29 -20 96 -50 148 -67 119 -39 212 -93
299 -176 l68 -64 1 124 c0 115 19 256 43 333 9 28 5 42 -25 108 -93 201 -269
413 -456 550 -125 91 -299 182 -286 150z"/>
<path d="M18058 14872 c-32 -36 -100 -153 -152 -262 -64 -133 -106 -255 -135
-396 l-21 -99 97 -100 c54 -55 120 -132 146 -172 86 -129 150 -319 151 -448 1
-59 -3 -77 -27 -117 -47 -80 -97 -99 -142 -53 -30 29 -33 83 -9 124 15 25 14
33 -5 116 -86 363 -396 615 -798 650 l-82 7 -8 -28 c-4 -16 -8 -105 -7 -199 0
-155 3 -178 27 -258 29 -94 81 -205 130 -276 46 -68 155 -179 222 -226 54 -39
64 -43 105 -39 55 6 106 -22 116 -62 6 -23 1 -32 -26 -57 -30 -27 -38 -29 -87
-24 -136 14 -335 151 -402 277 -28 52 -40 64 -89 89 -119 60 -215 83 -365 89
-187 6 -307 -18 -460 -95 l-68 -34 22 -37 c67 -111 132 -196 208 -275 229
-238 436 -311 951 -337 194 -9 266 -23 349 -64 103 -53 122 -80 239 -351 469
-1084 573 -2374 312 -3883 -202 -1167 -637 -2247 -1306 -3244 -193 -287 -427
-593 -646 -845 l-98 -112 88 -47 c48 -26 155 -85 237 -131 l150 -82 42 45 c63
68 266 321 385 480 595 798 1054 1707 1343 2661 399 1314 481 2760 234 4088
-83 441 -214 911 -368 1313 -58 153 -63 201 -31 304 20 64 50 115 144 243 89
121 159 324 187 540 17 133 6 424 -21 550 -60 281 -174 495 -352 660 -41 39
-95 84 -120 102 -43 30 -46 31 -60 15z"/>
<path d="M9118 14560 c-209 -33 -400 -128 -552 -275 -61 -58 -63 -74 -11 -75
28 -1 106 -37 133 -62 12 -12 22 -29 22 -39 0 -45 -24 -122 -50 -161 l-29 -43
42 -7 c73 -11 201 -9 288 7 212 37 376 123 526 278 104 108 172 208 226 338
l14 35 -151 0 c-83 0 -207 2 -276 6 -69 4 -151 3 -182 -2z"/>
<path d="M11065 14559 c-33 -6 -119 -8 -192 -6 l-131 5 15 -36 c113 -273 337
-490 594 -577 139 -48 321 -67 446 -47 l42 7 -29 43 c-26 39 -50 116 -50 162
0 36 81 85 173 105 36 7 27 25 -50 91 -134 117 -284 197 -433 234 -100 24
-296 34 -385 19z"/>
<path d="M4745 14460 c-110 -17 -239 -59 -353 -115 -112 -56 -113 -57 -300
-243 -180 -180 -331 -316 -494 -445 -42 -34 -76 -62 -75 -63 1 -2 34 6 72 17
112 32 250 35 370 8 144 -32 283 -36 383 -11 222 56 488 239 638 438 63 85
141 226 179 327 14 37 25 69 25 71 0 2 -39 6 -87 10 -176 13 -299 15 -358 6z"/>
<path d="M15460 14459 c-25 -4 -73 -8 -107 -8 -35 -1 -63 -3 -63 -6 0 -2 11
-35 25 -72 38 -101 116 -242 179 -327 150 -199 416 -382 638 -438 100 -25 239
-21 383 11 120 27 258 24 370 -8 38 -11 71 -19 72 -17 1 1 -33 29 -75 63 -163
129 -314 265 -494 445 -187 186 -188 187 -300 243 -212 103 -448 147 -628 114z"/>
<path d="M6558 14296 c-115 -72 -178 -126 -249 -213 -120 -150 -189 -318 -204
-498 -5 -59 -2 -86 24 -172 16 -56 42 -165 57 -241 l27 -140 79 59 c43 32 123
83 176 113 75 43 107 68 140 110 131 169 207 425 173 584 -6 29 -31 103 -55
165 -25 61 -50 141 -57 177 -23 124 -12 119 -111 56z"/>
<path d="M13825 14313 c-15 -92 -30 -145 -71 -250 -58 -147 -68 -199 -60 -300
11 -150 82 -326 178 -447 37 -45 70 -71 150 -117 56 -33 134 -84 173 -113 l72
-54 27 138 c15 76 41 187 57 247 26 91 30 118 24 173 -18 183 -85 345 -204
493 -78 96 -161 165 -293 241 l-47 27 -6 -38z"/>
<path d="M8109 14175 c-163 -33 -334 -145 -429 -281 l-29 -41 44 -5 c24 -3 66
-16 92 -29 l48 -24 -1 -60 c-1 -40 -8 -74 -22 -102 -12 -23 -22 -45 -22 -49 0
-4 51 -4 113 -1 220 12 365 75 517 227 91 91 140 160 175 243 l16 38 -73 34
c-130 61 -285 79 -429 50z"/>
<path d="M12085 14173 c-38 -8 -103 -30 -143 -48 l-73 -34 16 -38 c35 -83 84
-152 175 -243 81 -82 109 -103 190 -142 52 -26 122 -54 155 -63 63 -16 285
-33 285 -21 0 4 -10 26 -22 49 -14 28 -21 62 -22 102 l-1 60 48 24 c26 13 68
26 92 29 l44 5 -29 41 c-41 59 -136 149 -200 188 -156 97 -338 129 -515 91z"/>
<path d="M9155 13854 c-119 -57 -210 -77 -372 -78 l-143 -1 0 -27 c0 -23 5
-27 48 -37 129 -27 250 -95 342 -192 56 -58 59 -60 141 -75 210 -40 437 16
617 151 l63 48 -23 24 c-40 43 -180 130 -258 162 -86 34 -219 61 -294 60 -37
0 -71 -10 -121 -35z"/>
<path d="M11050 13871 c-47 -10 -114 -31 -150 -46 -72 -30 -212 -119 -249
-158 l-23 -26 63 -46 c185 -136 409 -191 618 -151 82 15 85 17 141 75 92 97
213 165 342 192 43 10 48 14 48 37 l0 27 -143 1 c-162 1 -251 20 -376 79 -86
41 -137 44 -271 16z"/>
<path d="M7360 13744 c-202 -43 -386 -202 -465 -401 -43 -108 -45 -101 29 -96
35 3 80 3 98 -1 29 -5 37 -12 48 -45 7 -23 11 -66 8 -105 -2 -36 -3 -66 -3
-66 1 0 34 11 74 25 240 81 448 282 535 513 33 90 47 145 38 153 -14 15 -163
39 -229 38 -37 0 -97 -7 -133 -15z"/>
<path d="M12840 13744 c-92 -20 -91 -19 -84 -51 74 -314 310 -560 629 -657 19
-6 20 -2 17 68 -5 85 13 132 54 142 14 4 57 4 95 2 79 -6 77 -13 34 95 -37 94
-86 165 -164 239 -154 147 -372 208 -581 162z"/>
<path d="M5854 13646 c-233 -161 -374 -435 -374 -728 0 -67 5 -91 40 -177 44
-109 75 -230 85 -334 6 -57 9 -66 21 -56 8 6 92 51 186 99 l173 87 41 81 c49
97 74 188 81 299 11 159 -27 299 -120 448 -62 98 -85 157 -95 239 l-7 64 -31
-22z"/>
<path d="M14590 13633 c0 -70 -30 -156 -85 -248 -76 -127 -104 -191 -122 -287
-30 -160 -5 -331 71 -480 l41 -81 173 -87 c94 -48 178 -93 186 -99 12 -10 15
-1 21 56 10 104 41 225 85 334 35 86 40 110 40 177 0 295 -140 566 -377 731
l-33 22 0 -38z"/>
<path d="M8456 13588 c-166 -73 -383 -118 -572 -118 l-104 0 0 -30 c0 -32 -6
-30 110 -50 171 -31 349 -120 489 -246 l54 -49 171 0 c123 0 195 5 258 18 78
16 237 62 247 72 9 10 -85 151 -141 210 -73 79 -131 122 -223 168 -64 32 -171
69 -192 66 -4 -1 -48 -19 -97 -41z"/>
<path d="M11859 13611 c-128 -41 -241 -113 -337 -216 -56 -59 -150 -200 -141
-210 10 -10 169 -56 247 -72 63 -13 135 -18 258 -18 l171 0 54 49 c140 126
318 215 489 246 116 20 110 18 110 50 l0 30 -104 0 c-189 0 -403 44 -577 119
-52 23 -98 41 -104 40 -5 0 -35 -9 -66 -18z"/>
<path d="M7758 13230 c-103 -26 -162 -61 -243 -144 -82 -84 -158 -140 -323
-237 l-93 -54 128 -7 c103 -6 165 -16 313 -53 277 -68 424 -71 638 -9 93 27
312 127 312 142 0 6 -10 12 -23 16 -40 10 -150 86 -227 159 -134 125 -252 186
-375 193 -38 2 -87 -1 -107 -6z"/>
<path d="M12536 13225 c-87 -25 -176 -77 -263 -155 -108 -96 -187 -155 -240
-177 -24 -10 -43 -22 -43 -26 0 -15 223 -115 312 -141 214 -62 361 -59 638 9
148 37 210 47 313 53 l128 7 -93 54 c-165 97 -241 153 -323 237 -70 72 -90 87
-159 114 -94 38 -195 47 -270 25z"/>
<path d="M6721 13179 c-285 -48 -521 -264 -601 -550 -11 -40 -20 -76 -20 -79
0 -3 39 -5 88 -5 l87 0 17 -52 c10 -28 21 -79 25 -112 l8 -60 67 28 c191 81
366 249 467 448 66 132 121 364 90 384 -18 11 -156 10 -228 -2z"/>
<path d="M13531 13182 c-10 -7 -11 -23 -6 -63 19 -152 80 -313 165 -440 89
-132 254 -269 398 -330 l67 -28 8 60 c4 33 15 84 25 112 l17 52 88 0 c48 0 87
2 87 5 0 26 -48 168 -76 223 -95 190 -276 338 -479 392 -71 19 -274 30 -294
17z"/>
<path d="M5109 12890 c-47 -47 -105 -114 -129 -149 -157 -235 -200 -530 -116
-796 19 -59 39 -92 122 -195 55 -69 130 -167 168 -217 l68 -93 28 38 c32 45
91 93 143 118 42 20 42 21 23 86 -48 157 -21 329 73 458 27 37 31 51 31 106 0
148 -40 242 -155 363 -115 121 -147 182 -163 306 l-7 59 -86 -84z"/>
<path d="M15280 12938 c0 -51 -28 -148 -57 -198 -15 -24 -63 -84 -108 -131
-115 -121 -155 -215 -155 -363 0 -55 4 -69 31 -106 94 -129 121 -301 73 -458
-19 -65 -19 -66 23 -86 52 -25 111 -73 143 -117 l27 -38 69 92 c38 51 113 148
168 217 83 103 103 136 122 195 112 352 -3 748 -286 985 l-50 42 0 -34z"/>
<path d="M7025 12606 c-94 -18 -166 -47 -217 -87 -65 -51 -404 -388 -440 -438
-21 -30 -26 -42 -15 -38 9 3 56 11 104 18 102 14 259 7 383 -16 134 -25 274
-29 356 -12 144 31 364 162 520 310 l87 82 -72 7 c-85 9 -140 32 -226 92 -88
63 -166 87 -300 92 -68 2 -137 -2 -180 -10z"/>
<path d="M13185 12609 c-74 -12 -133 -37 -201 -86 -85 -60 -141 -82 -225 -91
l-72 -7 87 -82 c156 -148 376 -279 520 -310 82 -17 222 -13 356 12 124 23 281
30 383 16 48 -7 95 -15 104 -18 11 -5 6 8 -15 38 -41 56 -379 392 -445 441
-105 79 -317 117 -492 87z"/>
<path d="M6076 12439 c-319 -78 -545 -343 -572 -672 -4 -41 -3 -100 0 -131 l8
-57 28 25 c36 30 119 59 157 54 40 -4 73 -70 82 -159 l6 -70 65 54 c253 208
387 513 366 831 -3 56 -9 111 -12 124 -8 27 -22 27 -128 1z"/>
<path d="M14266 12438 c-17 -58 -18 -255 -2 -346 42 -241 180 -474 366 -617
l57 -44 5 68 c7 88 40 155 81 159 38 5 121 -24 157 -54 l28 -25 8 57 c3 31 4
90 0 131 -28 331 -254 595 -576 673 -107 25 -116 25 -124 -2z"/>
<path d="M9495 12129 c-894 -69 -1729 -421 -2485 -1048 -148 -123 -448 -423
-571 -571 -565 -679 -912 -1423 -1054 -2264 -144 -851 -40 -1768 295 -2602 82
-204 259 -557 273 -546 7 5 102 76 212 157 110 81 202 149 204 151 2 2 -32 79
-76 171 -225 468 -365 942 -435 1470 -20 147 -22 214 -23 533 0 402 12 536 76
850 174 858 626 1689 1269 2330 380 379 794 656 1165 779 128 43 151 47 580
117 154 26 316 57 360 71 228 71 391 199 509 401 8 14 -118 15 -299 1z"/>
<path d="M10685 12129 c120 -203 282 -331 510 -402 44 -14 206 -45 360 -71
428 -70 451 -74 585 -118 368 -122 800 -414 1181 -798 623 -630 1072 -1455
1244 -2287 33 -161 61 -356 76 -530 17 -210 7 -673 -20 -881 -67 -517 -210
-998 -434 -1465 -44 -92 -78 -169 -76 -171 2 -2 94 -70 204 -151 110 -81 205
-152 212 -157 14 -11 191 342 273 546 169 420 284 885 336 1361 25 221 25 726
1 943 -109 970 -466 1805 -1096 2562 -123 148 -423 448 -571 571 -800 664
-1673 1014 -2634 1055 -136 6 -158 5 -151 -7z"/>
<path d="M6575 11935 c-93 -17 -188 -54 -267 -104 -49 -30 -76 -58 -117 -117
-76 -108 -198 -260 -277 -343 -64 -69 -65 -71 -43 -80 13 -5 48 -18 77 -30 52
-21 55 -21 115 -4 65 18 168 20 517 12 142 -3 174 -1 230 15 169 51 438 299
540 497 l19 37 -42 -10 c-23 -5 -73 -7 -112 -4 -59 4 -87 14 -180 61 -164 82
-290 102 -460 70z"/>
<path d="M13621 11934 c-36 -7 -116 -40 -179 -71 l-115 -58 -103 0 c-57 0
-104 -2 -104 -6 0 -3 28 -48 62 -100 117 -179 343 -371 488 -415 56 -16 88
-18 230 -15 349 8 452 6 517 -12 60 -17 63 -17 115 4 29 12 64 25 77 30 22 9
21 11 -43 80 -79 83 -201 235 -277 343 -41 59 -68 87 -117 117 -160 101 -375
142 -551 103z"/>
<path d="M4611 11787 c-44 -259 -40 -482 15 -755 43 -218 101 -374 170 -458
41 -50 72 -118 80 -177 9 -65 -16 -138 -85 -245 -131 -204 -271 -622 -381
-1132 -85 -396 -107 -569 -116 -885 -24 -840 164 -1798 517 -2630 79 -187 255
-540 349 -702 l71 -123 77 39 c91 46 233 138 317 206 33 26 61 49 63 50 2 2
-36 63 -84 136 -456 699 -772 1508 -888 2269 -45 298 -51 387 -51 775 0 396 8
498 61 810 88 511 286 1045 449 1211 96 97 169 127 349 144 59 6 143 22 189
36 96 31 253 107 338 165 166 112 330 319 419 526 26 62 27 69 12 78 -9 5 -87
10 -172 10 -171 0 -224 -10 -357 -71 -65 -29 -77 -39 -130 -111 -32 -43 -89
-137 -128 -208 -100 -183 -193 -274 -249 -243 -10 6 -16 23 -16 48 0 30 6 43
26 59 15 12 32 21 38 21 16 1 88 104 129 185 68 137 82 201 82 380 0 156 -8
214 -44 307 l-10 28 -55 -24 c-203 -90 -411 -301 -496 -503 -23 -54 -27 -76
-23 -119 5 -47 3 -55 -20 -78 -31 -31 -50 -33 -77 -6 -16 16 -20 33 -20 94 0
138 39 281 108 399 l35 60 -17 59 c-50 180 -187 336 -351 401 -114 46 -111 46
-124 -26z"/>
<path d="M15765 11825 c-182 -64 -328 -222 -381 -411 l-17 -61 35 -60 c69
-118 108 -261 108 -399 0 -61 -4 -78 -20 -94 -27 -27 -46 -25 -77 6 -23 23
-25 31 -20 78 18 175 -259 507 -519 622 l-55 24 -10 -28 c-36 -93 -44 -151
-44 -307 0 -179 14 -243 82 -380 41 -81 113 -184 129 -185 6 0 23 -9 38 -21
20 -16 26 -29 26 -59 0 -25 -6 -42 -16 -48 -56 -31 -149 60 -249 243 -38 71
-96 165 -128 208 -53 72 -65 82 -130 111 -133 61 -186 71 -357 71 -85 0 -163
-5 -172 -10 -15 -9 -14 -16 12 -78 89 -207 253 -414 419 -526 85 -58 242 -134
338 -165 46 -14 130 -30 189 -36 167 -15 238 -42 327 -120 62 -55 94 -103 166
-247 133 -266 247 -643 310 -1018 48 -287 56 -393 56 -780 0 -388 -6 -477 -51
-775 -116 -761 -432 -1570 -888 -2269 -48 -73 -86 -134 -84 -136 2 -1 30 -24
63 -50 84 -68 226 -160 317 -206 l77 -39 71 123 c96 165 272 518 349 702 223
525 374 1073 455 1645 48 338 60 504 60 855 0 367 -8 466 -70 792 -116 616
-273 1118 -425 1355 -69 107 -94 180 -85 245 8 60 39 127 82 179 138 169 243
701 205 1044 -14 133 -31 230 -40 230 -3 0 -37 -12 -76 -25z"/>
<path d="M10185 11714 c-85 -119 -232 -233 -384 -299 -102 -43 -157 -59 -480
-140 -319 -80 -422 -116 -560 -195 -137 -78 -222 -142 -303 -228 -89 -95 -120
-162 -126 -273 -9 -170 20 -228 351 -714 279 -408 1117 -1596 1173 -1662 l19
-22 65 29 c36 15 97 35 135 43 l70 14 3 301 2 302 80 0 80 0 2 -302 3 -301 70
-14 c39 -8 100 -27 137 -42 l66 -28 215 301 c749 1051 1206 1718 1267 1849 35
75 60 167 60 222 0 58 -26 149 -57 203 -65 112 -252 261 -453 362 -119 59
-165 74 -525 165 -451 113 -562 163 -726 325 -52 52 -106 110 -120 128 l-24
32 -40 -56z"/>
<path d="M7704 10286 c-128 -29 -285 -129 -449 -288 -117 -112 -174 -191 -365
-503 -201 -330 -312 -460 -478 -557 -79 -47 -198 -98 -227 -98 -11 0 -5 -14
24 -52 22 -29 56 -86 76 -126 105 -210 121 -362 89 -821 -18 -260 -14 -497 11
-611 62 -280 167 -474 292 -543 103 -56 210 -69 347 -43 178 35 909 257 2121
646 l350 112 0 144 1 144 -206 66 c-310 99 -365 116 -369 120 -2 2 35 131 44
151 0 1 133 -40 295 -91 l295 -93 37 62 c21 34 58 85 83 113 l45 50 -363 484
c-679 904 -1123 1474 -1232 1583 -131 132 -275 183 -421 151z"/>
<path d="M12610 10286 c-77 -16 -159 -60 -226 -119 -98 -88 -524 -632 -1235
-1579 -214 -285 -389 -523 -389 -529 0 -6 20 -34 45 -62 25 -28 57 -75 72
-104 16 -29 30 -53 33 -53 3 0 138 42 300 94 162 52 298 91 302 88 7 -8 50
-144 46 -147 -2 -2 -133 -44 -293 -94 -159 -51 -293 -95 -296 -99 -3 -4 -3
-68 0 -142 l6 -134 105 -34 c716 -232 1420 -454 1860 -586 495 -148 602 -170
725 -147 204 38 328 196 410 521 50 201 55 312 30 660 -17 241 -19 469 -4 560
21 135 74 268 153 384 25 38 45 70 44 71 -2 1 -37 14 -79 29 -119 42 -232 117
-334 220 -96 97 -158 183 -300 416 -49 80 -122 197 -164 260 -167 256 -466
493 -665 529 -70 13 -75 13 -146 -3z"/>
<path d="M10093 8055 c-234 -63 -403 -283 -403 -525 0 -297 245 -541 543 -540
143 0 273 55 377 160 169 168 208 408 103 628 -37 76 -159 198 -235 235 -118
56 -269 73 -385 42z"/>
<path d="M8660 6901 c-1209 -403 -1512 -512 -1616 -580 -78 -50 -149 -128
-182 -199 -24 -52 -27 -68 -27 -172 1 -133 21 -220 92 -390 78 -187 126 -258
389 -575 82 -100 175 -217 206 -260 127 -182 188 -358 188 -547 0 -82 2 -90
18 -83 102 39 171 50 322 49 188 -1 260 -18 511 -120 90 -37 218 -89 284 -116
256 -104 376 -133 600 -144 196 -10 355 27 455 106 80 64 141 188 159 326 24
182 55 1143 68 2100 l6 492 -57 12 c-32 6 -92 25 -133 42 -63 25 -77 28 -87
17 -7 -8 -89 -117 -181 -244 -93 -126 -170 -232 -171 -233 -1 -2 -32 18 -68
46 l-65 49 180 243 c98 134 179 246 179 250 0 3 -14 19 -31 36 -17 16 -56 66
-86 112 -30 45 -56 82 -56 82 -1 -1 -405 -135 -897 -299z"/>
<path d="M10867 7141 c-20 -32 -57 -81 -83 -110 l-46 -51 24 -32 c12 -18 96
-132 185 -252 l162 -219 -66 -50 c-36 -27 -68 -45 -72 -40 -19 30 -363 493
-365 493 -2 0 -32 -13 -67 -29 -58 -26 -93 -38 -171 -55 l-27 -6 5 -238 c37
-1896 53 -2315 94 -2456 78 -271 312 -375 727 -322 200 26 250 42 646 207 206
86 377 143 477 159 131 20 286 10 416 -29 l61 -18 6 106 c7 135 35 240 96 366
58 118 122 207 315 439 221 265 274 339 337 471 115 243 159 443 125 574 -35
135 -110 225 -253 298 -43 23 -186 80 -318 128 -224 82 -2145 725 -2164 725
-4 0 -24 -26 -44 -59z"/>
<path d="M6382 5275 c-709 -581 -1564 -1107 -2402 -1479 -231 -103 -595 -246
-802 -317 -101 -34 -186 -65 -190 -68 -4 -4 61 -75 145 -159 l152 -152 180 64
c984 346 1889 822 2733 1436 128 93 402 306 480 372 l32 27 -111 178 c-61 98
-112 179 -113 180 -1 1 -48 -35 -104 -82z"/>
<path d="M13892 5179 l-112 -181 32 -26 c78 -66 352 -279 480 -372 844 -614
1749 -1090 2733 -1436 l180 -64 152 152 c112 112 149 154 139 160 -8 5 -88 33
-178 64 -874 299 -1826 789 -2608 1342 -174 123 -435 321 -575 435 -60 50
-115 94 -120 98 -7 5 -53 -60 -123 -172z"/>
<path d="M6710 4814 c-956 -765 -2046 -1371 -3187 -1775 -84 -30 -153 -57
-153 -60 0 -5 269 -228 321 -266 14 -11 49 -2 205 51 1096 371 2109 930 3014
1665 58 46 122 100 142 118 l37 32 -121 133 c-66 73 -130 143 -142 155 l-21
23 -95 -76z"/>
<path d="M13532 4734 l-142 -156 124 -103 c903 -749 1950 -1332 3070 -1711
156 -53 191 -62 205 -51 52 38 321 261 321 266 0 3 -69 30 -153 60 -1126 398
-2184 984 -3142 1739 -66 52 -125 99 -131 103 -6 5 -63 -50 -152 -147z"/>
<path d="M7085 4368 c-594 -496 -1442 -1024 -2226 -1387 -343 -158 -705 -304
-961 -387 -49 -15 -88 -31 -88 -35 0 -3 77 -66 170 -138 l171 -132 112 37
c616 204 1286 518 1947 912 249 148 596 380 824 551 193 145 476 376 476 390
0 8 -294 292 -301 290 -2 0 -58 -46 -124 -101z"/>
<path d="M13117 4327 c-81 -78 -147 -145 -147 -149 0 -13 292 -251 476 -389
722 -540 1649 -1049 2474 -1357 102 -38 235 -86 297 -106 l112 -37 171 132
c93 72 170 135 170 138 0 4 -39 20 -87 35 -49 16 -160 55 -248 88 -1021 379
-2118 1008 -2943 1687 -67 56 -124 101 -125 101 -1 -1 -69 -65 -150 -143z"/>
<path d="M7515 3989 c-28 -28 -98 -94 -157 -146 -60 -52 -108 -98 -108 -102 0
-12 224 -139 425 -242 716 -367 1494 -600 2300 -689 99 -11 186 -20 193 -20 9
0 12 49 12 214 l0 213 -142 7 c-863 41 -1678 300 -2371 752 -54 35 -99 64
-100 64 -2 0 -25 -23 -52 -51z"/>
<path d="M12835 3991 c-202 -139 -548 -319 -820 -429 -508 -203 -1011 -312
-1572 -338 l-143 -7 0 -213 c0 -165 3 -214 13 -214 6 0 93 9 192 20 797 88
1560 315 2275 676 193 97 450 243 450 254 0 4 -48 50 -107 103 -60 52 -130
118 -158 146 -27 28 -52 51 -55 50 -3 0 -36 -22 -75 -48z"/>
<path d="M6865 3454 c-104 -74 -190 -139 -190 -145 0 -29 602 -351 915 -490
819 -362 1619 -573 2528 -664 l62 -6 0 234 0 235 -82 6 c-738 59 -1349 196
-1998 449 -276 108 -649 288 -902 436 -76 45 -139 81 -140 80 -2 0 -88 -61
-193 -135z"/>
<path d="M13290 3514 c-147 -87 -504 -270 -675 -344 -555 -241 -1128 -404
-1724 -490 -172 -25 -508 -60 -573 -60 -17 0 -18 -18 -18 -235 l0 -236 63 6
c908 91 1708 302 2527 664 312 139 915 461 915 490 0 9 -379 282 -388 280 -1
0 -58 -34 -127 -75z"/>
<path d="M6218 3047 c-120 -73 -218 -135 -218 -138 0 -4 57 -41 128 -82 1105
-650 2272 -1054 3522 -1221 216 -29 520 -59 527 -52 3 3 2 102 -2 220 l-7 214
-87 7 c-174 13 -490 46 -626 66 -1010 148 -1972 492 -2854 1021 -90 54 -164
98 -165 97 -1 0 -99 -60 -218 -132z"/>
<path d="M13955 3128 c-446 -282 -1055 -568 -1592 -747 -643 -214 -1249 -333
-1964 -386 l-87 -7 -7 -214 c-4 -118 -5 -217 -2 -220 7 -7 311 23 527 52 1250
167 2421 573 3523 1221 70 41 127 78 127 82 0 5 -421 262 -439 268 -3 1 -42
-21 -86 -49z"/>
<path d="M5614 2696 c-67 -35 -178 -85 -247 -112 -70 -27 -127 -52 -127 -56 0
-3 73 -53 163 -111 1100 -705 2321 -1175 3605 -1386 330 -55 679 -93 1065
-116 l107 -7 0 221 0 221 -39 0 c-75 0 -398 21 -551 35 -1013 98 -1983 372
-2880 816 -327 161 -656 349 -897 511 -40 26 -73 47 -75 47 -2 -1 -58 -29
-124 -63z"/>
<path d="M14700 2734 c-75 -54 -381 -241 -534 -327 -1011 -565 -2118 -911
-3276 -1022 -153 -14 -476 -35 -551 -35 l-39 0 0 -221 0 -221 108 7 c385 23
734 61 1064 116 1284 211 2505 681 3606 1386 89 58 162 108 162 111 0 4 -58
29 -127 57 -70 27 -183 77 -252 112 -69 35 -126 63 -126 62 0 0 -16 -11 -35
-25z"/>
<path d="M4665 2319 c-176 -60 -327 -112 -335 -115 -20 -7 -13 -12 300 -222
1248 -835 2629 -1394 4115 -1666 349 -64 791 -121 1125 -145 74 -6 174 -13
223 -16 l87 -7 0 276 0 276 -52 0 c-201 0 -658 36 -968 75 -1448 185 -2833
719 -4020 1549 -79 55 -147 102 -150 103 -3 1 -149 -47 -325 -108z"/>
<path d="M15440 2394 c-89 -68 -449 -304 -621 -407 -1171 -703 -2480 -1127
-3864 -1252 -173 -15 -508 -35 -602 -35 l-53 0 0 -276 0 -276 88 7 c48 3 148
10 222 16 334 24 776 81 1125 145 1486 272 2867 831 4115 1666 313 210 320
215 300 222 -33 13 -662 226 -663 225 -1 0 -22 -16 -47 -35z"/>
</g>
</svg>
